<svg width="42" height="43" viewBox="0 0 42 43" fill="none" xmlns="http://www.w3.org/2000/svg">
<path d="M20.9988 0.990936C9.49222 0.990936 0.130859 10.2364 0.130859 21.6005C0.130859 32.9647 9.49222 42.2102 20.9988 42.2102C32.5054 42.2102 41.8667 32.9647 41.8667 21.6005C41.8667 10.2364 32.5054 0.990936 20.9988 0.990936ZM20.9988 39.4622C11.0267 39.4622 2.91325 31.4492 2.91325 21.6005C2.91325 11.7519 11.0267 3.73888 20.9988 3.73888C26.142 3.73888 30.7789 5.88091 34.076 9.29661L20.8179 27.723L13.6352 20.6291C13.0912 20.0919 12.212 20.0919 11.668 20.6291C11.1241 21.1664 11.1241 22.0347 11.668 22.5719L20.0152 30.8158C20.2768 31.0755 20.6315 31.2184 20.9988 31.2184C21.0364 31.2184 21.0767 31.217 21.1157 31.2129C21.5233 31.1799 21.8961 30.9697 22.1326 30.6399L35.9013 11.5032C37.9046 14.3776 39.0843 17.8537 39.0843 21.6005C39.0843 31.4492 30.9709 39.4622 20.9988 39.4622Z" fill="white"/>
</svg>
